<?xml version="1.0" encoding="UTF-8"?>
<svg width="101px" height="91px" viewBox="0 0 101 91" version="1.1" xmlns="http://www.w3.org/2000/svg" xmlns:xlink="http://www.w3.org/1999/xlink">
    <title>icon</title>
    <g id="Page-1" stroke="none" stroke-width="1" fill="none" fill-rule="evenodd">
        <g id="icon" transform="translate(0.154794, 0.565973)" fill="#7B00FF">
            <g id="Upcloud_Cloudmark-Purple" transform="translate(1.000000, 14.000000)">
                <path d="M43.6225962,55.2930057 L43.6225962,36 L36,36 L36,63 L85.9254808,63 C93.1442308,63 99,57.0793951 99,49.7807183 C99,42.4820416 93.1442308,36.5614367 85.9254808,36.5614367 L52.40625,36.5614367 L52.40625,44.268431 L85.9254808,44.268431 C88.9543269,44.268431 91.3774038,46.7183365 91.3774038,49.7807183 C91.3774038,52.8431002 88.9543269,55.2930057 85.9254808,55.2930057 L43.6730769,55.2930057 L43.6225962,55.2930057 Z" id="Path"></path>
                <path d="M59.0229645,7.6779661 L36.125261,7.6779661 L36.125261,0 L59.0229645,0 C66.1878914,0 72,5.89830508 72,13.1694915 C72,20.440678 66.1878914,26.3389831 59.0229645,26.3389831 L12.9770355,26.3389831 C9.97077244,26.3389831 7.565762,28.779661 7.565762,31.8305085 C7.565762,34.8813559 9.97077244,37.3220339 12.9770355,37.3220339 L27.4070981,37.3220339 L27.4070981,45 L12.9770355,45 C5.81210856,45 0,39.1016949 0,31.8305085 C0,24.559322 5.81210856,18.6610169 12.9770355,18.6610169 L58.9728601,18.6610169 C61.9791232,18.6610169 64.3841336,16.220339 64.3841336,13.1694915 C64.3841336,10.1186441 61.9791232,7.6779661 58.9728601,7.6779661 L59.0229645,7.6779661 Z" id="Path"></path>
            </g>
        </g>
    </g>
</svg>